<svg width="8" height="14" viewBox="0 0 8 14" fill="none" xmlns="http://www.w3.org/2000/svg">
<path fill-rule="evenodd" clip-rule="evenodd" d="M7.69931 0.320858C7.8826 0.521119 7.98276 0.789682 7.97778 1.06753C7.97279 1.34538 7.86306 1.60978 7.67271 1.80263L2.43568 6.98883L7.67271 12.175C7.77158 12.2693 7.85144 12.3835 7.90756 12.5108C7.96368 12.6381 7.99492 12.7759 7.99943 12.9162C8.00394 13.0564 7.98162 13.1962 7.9338 13.3272C7.88598 13.4582 7.81364 13.5777 7.72105 13.6788C7.62846 13.7799 7.51751 13.8604 7.39478 13.9156C7.27205 13.9707 7.14003 13.9994 7.00654 14C6.87306 14.0005 6.74083 13.9729 6.61769 13.9188C6.49454 13.8646 6.38299 13.7851 6.28964 13.6848L0.305231 7.74369C0.2087 7.64589 0.131918 7.52864 0.0794738 7.39894C0.0270296 7.26924 0 7.12976 0 6.98883C0 6.8479 0.0270296 6.70842 0.0794738 6.57872C0.131918 6.44902 0.2087 6.33177 0.305231 6.23396L6.28964 0.2929C6.48016 0.100228 6.73565 -0.00505562 6.99998 0.000186802C7.26431 0.00542922 7.51584 0.120768 7.69931 0.320858Z" fill="black"/>
</svg>
