<svg width="15" height="16" viewBox="0 0 15 16" fill="none" xmlns="http://www.w3.org/2000/svg">
<g id="Frame 62" opacity="0.43">
<path id="Vector" d="M5.5 0C4.67157 0 4 0.671573 4 1.5V2C4 2.55228 4.44772 3 5 3H5.5C5.77614 3 6 2.77614 6 2.5C6 2.22386 6.22386 2 6.5 2H11C12.1046 2 13 2.89543 13 4V9.5C13 9.77614 12.7761 10 12.5 10C12.2239 10 12 10.2239 12 10.5V11C12 11.5523 12.4477 12 13 12H13.5C14.3284 12 15 11.3284 15 10.5V2C15 0.895431 14.1046 0 13 0H5.5Z" fill="black"/>
<path id="Vector_2" d="M7 6C8.10457 6 9 6.89543 9 8V12C9 13.1046 8.10457 14 7 14H4C2.89543 14 2 13.1046 2 12V8C2 6.89543 2.89543 6 4 6H7ZM11 6C11 4.89543 10.1046 4 9 4H2C0.895431 4 0 4.89543 0 6V14C0 15.1046 0.895431 16 2 16H9C10.1046 16 11 15.1046 11 14V6Z" fill="black"/>
</g>
</svg>
