<svg width="24" height="24" viewBox="0 0 24 24" fill="none" xmlns="http://www.w3.org/2000/svg">
<g id="Frame">
<path id="Vector" d="M14.3795 2.28887C14.4208 2.09488 14.397 1.89267 14.3116 1.71365C14.2262 1.53463 14.084 1.38884 13.9072 1.29894C13.7304 1.20903 13.5289 1.18005 13.3339 1.2165C13.1389 1.25294 12.9615 1.35277 12.8291 1.50047L2.62908 12.9005C2.51326 13.03 2.43739 13.1902 2.41064 13.3619C2.38388 13.5335 2.40739 13.7093 2.47831 13.8679C2.54924 14.0265 2.66456 14.1612 2.81034 14.2557C2.95612 14.3502 3.12615 14.4005 3.29988 14.4005H11.1863L9.62028 21.7121C9.57892 21.9061 9.60279 22.1083 9.6882 22.2873C9.7736 22.4663 9.91575 22.6121 10.0925 22.702C10.2693 22.7919 10.4709 22.8209 10.6659 22.7844C10.8608 22.748 11.0383 22.6482 11.1707 22.5005L21.3707 11.1005C21.4865 10.971 21.5624 10.8107 21.5891 10.6391C21.6159 10.4674 21.5924 10.2917 21.5215 10.1331C21.4505 9.97446 21.3352 9.83977 21.1894 9.74527C21.0436 9.65076 20.8736 9.60047 20.6999 9.60047H12.8135L14.3795 2.28887Z" fill="#F9C200"/>
</g>
</svg>
