<svg width="30" height="30" viewBox="0 0 30 30" fill="none" xmlns="http://www.w3.org/2000/svg">
<g opacity="0.5">
<path fill-rule="evenodd" clip-rule="evenodd" d="M3 7.125C3 6.82663 3.11853 6.54048 3.3295 6.3295C3.54048 6.11853 3.82663 6 4.125 6H25.875C26.1734 6 26.4595 6.11853 26.6705 6.3295C26.8815 6.54048 27 6.82663 27 7.125C27 7.42337 26.8815 7.70952 26.6705 7.9205C26.4595 8.13147 26.1734 8.25 25.875 8.25H4.125C3.82663 8.25 3.54048 8.13147 3.3295 7.9205C3.11853 7.70952 3 7.42337 3 7.125ZM3 15C3 14.7016 3.11853 14.4155 3.3295 14.2045C3.54048 13.9935 3.82663 13.875 4.125 13.875H25.875C26.1734 13.875 26.4595 13.9935 26.6705 14.2045C26.8815 14.4155 27 14.7016 27 15C27 15.2984 26.8815 15.5845 26.6705 15.7955C26.4595 16.0065 26.1734 16.125 25.875 16.125H4.125C3.82663 16.125 3.54048 16.0065 3.3295 15.7955C3.11853 15.5845 3 15.2984 3 15ZM3 22.875C3 22.5766 3.11853 22.2905 3.3295 22.0795C3.54048 21.8685 3.82663 21.75 4.125 21.75H25.875C26.1734 21.75 26.4595 21.8685 26.6705 22.0795C26.8815 22.2905 27 22.5766 27 22.875C27 23.1734 26.8815 23.4595 26.6705 23.6705C26.4595 23.8815 26.1734 24 25.875 24H4.125C3.82663 24 3.54048 23.8815 3.3295 23.6705C3.11853 23.4595 3 23.1734 3 22.875Z" fill="black"/>
</g>
</svg>
