<svg width="30" height="30" viewBox="0 0 30 30" fill="none" xmlns="http://www.w3.org/2000/svg">
<g id="Frame" opacity="0.5">
<path id="Vector" fill-rule="evenodd" clip-rule="evenodd" d="M6.51456 6.63925C6.72554 6.42827 7.01169 6.30974 7.31006 6.30974C7.60843 6.30974 7.89458 6.42827 8.10555 6.63925L23.4851 22.0188C23.6961 22.2298 23.8146 22.5159 23.8146 22.8143C23.8146 23.1127 23.6961 23.3988 23.4851 23.6098C23.2741 23.8208 22.988 23.9393 22.6896 23.9393C22.3913 23.9393 22.1051 23.8208 21.8941 23.6098L6.51456 8.23024C6.30359 8.01926 6.18506 7.73311 6.18506 7.43474C6.18506 7.13637 6.30359 6.85022 6.51456 6.63925Z" fill="black"/>
<path id="Vector_2" d="M6.18523 22.8145C6.18523 23.1128 6.30375 23.399 6.51473 23.6099C6.72571 23.8209 7.01186 23.9395 7.31023 23.9395C7.6086 23.9395 7.89475 23.8209 8.10572 23.6099L23.4853 8.23037C23.6963 8.0194 23.8148 7.73325 23.8148 7.43488C23.8148 7.13651 23.6963 6.85036 23.4853 6.63938C23.2743 6.42841 22.9882 6.30988 22.6898 6.30988C22.3914 6.30988 22.1053 6.42841 21.8943 6.63938L6.51473 22.019C6.30376 22.2299 6.18523 22.5161 6.18523 22.8145Z" fill="black"/>
</g>
</svg>
