<svg width="21" height="20" viewBox="0 0 21 20" fill="none" xmlns="http://www.w3.org/2000/svg">
<path fill-rule="evenodd" clip-rule="evenodd" d="M19.25 10C19.25 12.3206 18.3281 14.5462 16.6872 16.1872C15.0462 17.8281 12.8206 18.75 10.5 18.75C8.17936 18.75 5.95376 17.8281 4.31282 16.1872C2.67187 14.5462 1.75 12.3206 1.75 10C1.75 7.67936 2.67187 5.45376 4.31282 3.81282C5.95376 2.17187 8.17936 1.25 10.5 1.25C12.8206 1.25 15.0462 2.17187 16.6872 3.81282C18.3281 5.45376 19.25 7.67936 19.25 10ZM11.75 14.375C11.75 14.7065 11.6183 15.0245 11.3839 15.2589C11.1495 15.4933 10.8315 15.625 10.5 15.625C10.1685 15.625 9.85054 15.4933 9.61612 15.2589C9.3817 15.0245 9.25 14.7065 9.25 14.375C9.25 14.0435 9.3817 13.7255 9.61612 13.4911C9.85054 13.2567 10.1685 13.125 10.5 13.125C10.8315 13.125 11.1495 13.2567 11.3839 13.4911C11.6183 13.7255 11.75 14.0435 11.75 14.375ZM9.61625 6.61625C9.751 6.4819 9.91464 6.38009 10.0947 6.31858C10.2748 6.25706 10.4665 6.23746 10.6553 6.26128C10.844 6.2851 11.0249 6.3517 11.184 6.456C11.3432 6.56031 11.4764 6.69957 11.5736 6.86317C11.6707 7.02677 11.7293 7.2104 11.7447 7.40005C11.7601 7.5897 11.7321 7.78037 11.6626 7.95753C11.5932 8.13469 11.4843 8.29367 11.3441 8.42233C11.2039 8.551 11.0362 8.64597 10.8538 8.7C10.28 8.8675 9.5625 9.4075 9.5625 10.3125V10.625C9.5625 10.8736 9.66127 11.1121 9.83709 11.2879C10.0129 11.4637 10.2514 11.5625 10.5 11.5625C10.7486 11.5625 10.9871 11.4637 11.1629 11.2879C11.3387 11.1121 11.4375 10.8736 11.4375 10.625V10.4813C11.8892 10.339 12.3027 10.096 12.6467 9.77047C12.9907 9.44498 13.2562 9.04556 13.4232 8.6024C13.5902 8.15923 13.6542 7.68391 13.6106 7.21235C13.5669 6.74079 13.4166 6.28533 13.1711 5.88037C12.9255 5.47541 12.5912 5.13155 12.1933 4.87477C11.7953 4.618 11.3443 4.45502 10.8741 4.39815C10.404 4.34129 9.92703 4.39202 9.47936 4.54653C9.03169 4.70103 8.625 4.95526 8.29 5.29C8.2005 5.37652 8.12913 5.48001 8.08005 5.59441C8.03097 5.70881 8.00517 5.83184 8.00415 5.95632C8.00312 6.0808 8.0269 6.20424 8.0741 6.31943C8.12129 6.43462 8.19095 6.53926 8.27901 6.62725C8.36708 6.71523 8.47179 6.78479 8.58702 6.83188C8.70226 6.87896 8.82572 6.90262 8.9502 6.90148C9.07468 6.90034 9.19769 6.87442 9.31204 6.82524C9.4264 6.77605 9.52981 6.70458 9.61625 6.615V6.61625Z" fill="black"/>
</svg>
