<svg width="20" height="20" viewBox="0 0 20 20" fill="none" xmlns="http://www.w3.org/2000/svg">
<g id="Frame">
<path id="Vector" d="M6.3 2.84052C6.07307 2.69744 5.81192 2.61784 5.54376 2.61001C5.27561 2.60219 5.01026 2.66642 4.77537 2.79602C4.54048 2.92561 4.34464 3.11584 4.20827 3.34686C4.0719 3.57788 3.99997 3.84125 4 4.10952V15.8895C3.99997 16.1578 4.0719 16.4212 4.20827 16.6522C4.34464 16.8832 4.54048 17.0734 4.77537 17.203C5.01026 17.3326 5.27561 17.3968 5.54376 17.389C5.81192 17.3812 6.07307 17.3016 6.3 17.1585L15.644 11.2685C15.8584 11.1334 16.0351 10.9461 16.1576 10.7242C16.28 10.5023 16.3442 10.253 16.3442 9.99952C16.3442 9.74606 16.28 9.49674 16.1576 9.27483C16.0351 9.05292 15.8584 8.86565 15.644 8.73052L6.3 2.83952V2.84052Z" fill="black"/>
</g>
</svg>
