<svg width="36" height="38" viewBox="0 0 36 38" fill="none" xmlns="http://www.w3.org/2000/svg">
<path d="M5.51251 5.84585C5.51251 4.37823 4.27849 3.18848 2.75625 3.18848C1.23402 3.18848 0 4.37823 0 5.84585C0 6.71619 0.433626 7.48734 1.1025 7.97161V18.6012C1.1025 20.2348 2.27849 21.6035 3.85875 21.9634V24.4475C3.85875 31.9324 10.1522 38.0001 17.9157 38.0001C25.6791 38.0001 31.9725 31.9324 31.9725 24.4475V21.9634C33.5528 21.6035 34.7288 20.2348 34.7288 18.6012V7.97161C35.3977 7.48734 35.8313 6.71619 35.8313 5.84585C35.8313 4.37823 34.5973 3.18848 33.075 3.18848C31.5528 3.18848 30.3188 4.37823 30.3188 5.84585C30.3188 6.56464 30.6147 7.21577 31.0942 7.69342L30.2696 9.95287C28.8556 8.25915 26.6874 7.17454 24.255 7.17454H11.5762C9.14388 7.17454 6.97572 8.25915 5.56166 9.95287L4.73708 7.69342C5.21657 7.21577 5.51251 6.56464 5.51251 5.84585Z" fill="black"/>
<path d="M31.4213 5.84638C31.4213 4.96581 32.1617 4.25195 33.0751 4.25195C33.9884 4.25195 34.7288 4.96581 34.7288 5.84638C34.7288 6.54061 34.2686 7.13121 33.6263 7.35008V18.6018C33.6263 19.9227 32.5156 20.9934 31.1456 20.9934H30.3188V13.0213L32.4051 7.30455C31.8256 7.05666 31.4213 6.49704 31.4213 5.84638Z" fill="#757575"/>
<path d="M4.40998 5.84638C4.40998 4.96581 3.66957 4.25195 2.75623 4.25195C1.84289 4.25195 1.10248 4.96581 1.10248 5.84638C1.10248 6.54061 1.56266 7.13121 2.20498 7.35008V18.6018C2.20498 19.9227 3.31559 20.9934 4.68561 20.9934H5.51248V13.0213L3.42619 7.30455C4.00574 7.05667 4.40998 6.49704 4.40998 5.84638Z" fill="#757575"/>
<path d="M4.96112 14.616C4.96112 11.0937 7.92279 8.23828 11.5761 8.23828H24.2549C27.9083 8.23828 30.8699 11.0937 30.8699 14.616V24.4483C30.8699 31.3462 25.07 36.938 17.9155 36.938C10.761 36.938 4.96112 31.3462 4.96112 24.4483V14.616Z" fill="#CCCCCC"/>
<path d="M12.128 8.23828H23.7042V16.7419H12.128V8.23828Z" fill="white"/>
<path d="M15.4354 7.97266H18.3667C19.4878 7.97266 20.3967 8.87485 20.3967 9.98779V13.0217C20.3967 14.3425 19.2861 15.4133 17.9161 15.4133C16.5461 15.4133 15.4354 14.3425 15.4354 13.0217V7.97266Z" fill="#F03917"/>
<path d="M13.7817 27.9033H22.0505V30.0292H13.7817V27.9033Z" fill="black"/>
<path d="M7.44208 18.3357C7.44208 17.4551 8.18246 16.7412 9.09583 16.7412H26.7359C27.6492 16.7412 28.3896 17.4551 28.3896 18.3357V22.5874C28.3896 23.468 27.6492 24.1819 26.7359 24.1819H9.09583C8.18246 24.1819 7.44208 23.468 7.44208 22.5874V18.3357Z" fill="black"/>
<path d="M10.1982 19.6638C10.1982 18.7832 10.9386 18.0693 11.852 18.0693C12.7653 18.0693 13.5057 18.7832 13.5057 19.6638V21.2582C13.5057 22.1388 12.7653 22.8526 11.852 22.8526C10.9386 22.8526 10.1982 22.1388 10.1982 21.2582V19.6638Z" fill="#30D2F8"/>
<path d="M22.3262 19.6638C22.3262 18.7832 23.0666 18.0693 23.98 18.0693C24.8934 18.0693 25.6338 18.7832 25.6338 19.6638V21.2582C25.6338 22.1388 24.8934 22.8526 23.98 22.8526C23.0666 22.8526 22.3262 22.1388 22.3262 21.2582V19.6638Z" fill="#30D2F8"/>
<path d="M10.6836 34.8122C7.23151 32.5687 4.96112 28.7642 4.96112 24.4484V24.3477L10.7493 28.966V34.8122H10.6836Z" fill="#757575"/>
<path d="M30.8706 24.3477V24.4484C30.8706 28.7642 28.6002 32.5687 25.1481 34.8122H25.0825V28.966L30.8706 24.3477Z" fill="#757575"/>
<path fill-rule="evenodd" clip-rule="evenodd" d="M12.175 6.42333C11.8596 6.72733 11.7653 7.18453 11.936 7.58172C12.1066 7.97893 12.5086 8.23788 12.9546 8.23788H16.5656L15.4913 11.3576C15.3303 11.8252 15.5237 12.3382 15.9586 12.597C16.3935 12.8558 16.9559 12.7926 17.3173 12.4441L23.6566 6.33214C23.972 6.02814 24.0663 5.57094 23.8956 5.17374C23.725 4.77655 23.323 4.51757 22.8771 4.51757H19.266L20.3403 1.39791C20.5013 0.930277 20.3079 0.41724 19.873 0.158442C19.4381 -0.100357 18.8757 -0.0370649 18.5143 0.311353L12.175 6.42333Z" fill="black"/>
<path d="M12.9545 7.17544L19.2938 1.06348L17.7382 5.58102H22.877L16.5376 11.693L18.0933 7.17544H12.9545Z" fill="#FFC93A"/>
</svg>
